<svg xmlns="http://www.w3.org/2000/svg" viewBox="0 0 182.5 43.5" fill="#606060"><path d="M7.4 27.54c0-.753.787-1.9 1.278-1.9.164 0 .262.098.36.295.098.098.655.787 1.9.787 1.344 0 2.295-.886 2.295-2.296 0-3.9-8-4.064-8-10.75 0-4.326 4.72-8.916 9.178-8.916 2.557 0 4.13 1.67 4.13 4.23 0 3.638-4.228 7.08-6.228 7.08-1.147 0-1.835-1.212-1.835-1.9 0-.558.295-.23.853-.23 1.77 0 4.72-2.753 4.72-4.917 0-1.114-.492-1.803-1.803-1.803-2.426 0-6.458 2.885-6.458 6.458 0 5.08 8.03 5.18 8.03 10.654 0 2.655-2.13 4.853-4.884 4.853-2.786-.002-3.54-1.446-3.54-1.643zM19.682 7.806c0-.95-.328-1.017-.328-1.246s.6-.36 1.05-.36c1.083 0 1.77.655 1.77 1.442v10.75c.885-1.835 2.065-3.245 3.672-3.245 2.196 0 2.72 1.803 2.72 3.3v6.786c0 .295 0 1.508.853 1.508 1.3 0 1.9-2.1 2.196-3.54.394-2 2.164-.458 1.9.6-.6 2.163-1.87 5.114-4.687 5.114-1.738 0-2.754-1.4-2.754-3.08V19.18c0-1.016-.065-1.868-.688-1.868-.95 0-2.983 2.82-3.213 5.4v4.786c0 .622.034 1.4-.917 1.4-.655 0-1.573-.23-1.573-1.44l-.001-19.67z"/><path d="M43.218 23.212c.13-.688.458-.982.786-.982.525 0 1.147.72 1.147 1.343 0 .032 0 .1-.032.23-.558 2.163-1.87 5.114-4.688 5.114-1.147 0-2.032-.56-2.524-1.343-.656.753-1.574 1.343-2.82 1.343-2.557 0-3.9-2.163-3.9-4.95 0-5.475 3.802-8.818 7.8-8.818.885 0 1.508.525 1.508 1.376 0 .558-.1.754-.426.754-.295 0-.623-.065-.95-.065-2.492 0-5.41 2.13-5.41 6.85 0 1.705.72 2.688 1.868 2.688.885 0 1.475-.788 1.835-1.705V20c0-.623-.13-.82-.13-1.05 0-.328.393-.558.852-.558 1.083 0 1.77.655 1.77 1.443v5.41c0 .72.328 1.508 1.115 1.508 1.31 0 1.9-2.1 2.196-3.54z"/><path d="M47.12 25.18c0-2.098.6-4.426 1.64-7.245h-2.85c-.033 1.278-.23 4.13-.82 6.032-.426 1.376-2.13.195-1.835-.92.36-1.31.49-4.03.525-5.703-.82-.46-1.4-1.147-1.4-2.098 0-.918.787-1.508 1.64-1.508.787 0 1.704.393 2.065 1.737l1.737.13h1.705c.393 0 1.704 1.082 1.573 1.836 0 .393-1.475 4.26-1.475 7.54 0 .918.426 1.77 1.31 1.77 1.508 0 2.065-2.1 2.36-3.54.13-.688.46-.982.787-.982.525 0 1.147.72 1.147 1.343 0 .1-.033.165-.033.23-.6 2.163-1.87 5.114-4.688 5.114-1.54-.001-3.376-.854-3.376-3.737z"/><path d="M53.184 10.23c0-1.147.885-2 1.967-2 1.147 0 2 .852 2 2 0 1.082-.853 2-2 2-1.082 0-1.967-.918-1.967-2zm2.72 15.014c0 .295 0 1.508.853 1.508 1.31 0 1.9-2.1 2.196-3.54.393-2 2.163-.458 1.9.6-.6 2.163-1.868 5.114-4.688 5.114-1.737 0-2.753-1.41-2.753-3.08v-8.752c0-.623-.13-.82-.13-1.05 0-.328.393-.558.852-.558 1.082 0 1.77.656 1.77 1.442v8.327z"/><path d="M59.084 17.083c0-.623-.13-.82-.13-1.05 0-.328.393-.558.852-.558 1.082 0 1.77.656 1.77 1.442v1.475c.885-1.835 2.065-3.245 3.67-3.245 2.196 0 2.72 1.803 2.72 3.31v6.786c0 .295 0 1.508.853 1.508 1.31 0 1.9-2.1 2.196-3.54.13-.688.458-.982.787-.982.524 0 1.146.72 1.146 1.343 0 .032 0 .1-.032.23-.558 2.163-1.87 5.114-4.688 5.114-1.737 0-2.754-1.41-2.754-3.08V19.18c0-1.016-.065-1.868-.688-1.868-.95 0-2.983 2.82-3.213 5.41v4.786c0 .622.033 1.41-.918 1.41-.655 0-1.573-.23-1.573-1.44l.001-10.392z"/><path d="M76.95 30.852V27.4c-.655.655-1.54 1.18-2.688 1.18-2.557 0-3.9-2.163-3.9-4.95 0-5.474 3.802-8.817 7.8-8.817.885 0 1.508.525 1.508 1.376 0 .558-.1.754-.426.754-.295 0-.623-.065-.95-.065-2.492 0-5.4 2.13-5.4 6.852 0 1.702.72 2.688 1.868 2.688 1.312 0 1.967-1.737 2.196-3.05v-3.705c0-.623-.13-.82-.13-1.05 0-.328.394-.557.852-.557 1.082 0 1.77.655 1.77 1.442v8.916c1.18-1.3 2.228-2.948 2.884-5.212.196-.688.46-.982.787-.982.524 0 1.147.72 1.147 1.343 0 .033 0 .197-.034.328-1.114 3.803-3.015 5.736-4.785 7.277v5.672c0 3.44-1.738 4.652-3.4 4.652-1.835 0-3.147-1.672-3.147-3.77.001-3.3 1.902-4.982 4.065-6.882zm0 5.998v-3.508c-1.05 1.08-1.77 2.327-1.77 4.293 0 1.018.328 1.805.853 1.805 1.05-.002.917-1.967.917-2.6zm12.5-26.62c0-1.147.885-2 1.967-2 1.146 0 2 .852 2 2 0 1.082-.854 2-2 2-1.082 0-1.967-.918-1.967-2zm2.72 15.014c0 .295 0 1.508.854 1.508 1.312 0 1.9-2.1 2.195-3.54.393-2 2.163-.458 1.9.6-.6 2.163-1.868 5.114-4.688 5.114-1.737 0-2.753-1.4-2.753-3.08v-8.752c0-.623-.13-.82-.13-1.05 0-.328.393-.558.852-.558 1.082 0 1.77.656 1.77 1.442v8.327z"/><path d="M95.307 22.852c.327-1.44 1.017-3.3 1.605-5.047-.327-.492-.523-.984-.523-1.54 0-1.115 1.9-2.6 2.785-2.6.787 0 1.182.6 1.182 1.475 0 .95-.754 2.033-.787 2.23 1.54 2.72 3.54 3.9 3.54 7.016 0 .393-.063.818-.164 1.18 1.54-.327 2.328-1.312 2.688-2.36.23-.622.46-.885.755-.885.56 0 1.182.853 1.182 1.312 0 .655-.754 1.9-1.508 2.523-1.02.82-2.36 1.443-4.394 1.574-.787.688-1.87 1.18-3.212 1.18-1.377 0-2.95-.753-3.605-1.377-1.605-1.54-.72-3.277 0-3.277.655 0 3.64 1.9 5.277 1.9a3.27 3.27 0 0 0 .721-2c0-2.064-1.213-3.44-2.36-4.62-.524 1.278-.852 2.394-1.278 3.966-.363 1.376-2.167.458-1.904-.657zm17.273-.132c0-3.77 2.23-7.572 5.342-7.572 2.262 0 3.115 2.065 3.115 3.213 0 1.245-2.264 1.9-2.066.754-.164-.558-.23-1.77-1.344-1.77-1.213 0-2.36 2.426-2.36 5.375 0 2.6 1.408 4.032 3.344 4.032 2.558 0 3.736-2.13 4.13-4.13.295-1.476 2.13-.82 2 .328-.23 2-1.673 5.966-6.5 5.966-2.92.001-5.672-2.162-5.672-6.194z"/><path d="M134.22 23.212c.13-.688.46-.982.787-.982.523 0 1.146.72 1.146 1.343 0 .032 0 .1-.033.23-.557 2.163-1.87 5.114-4.688 5.114-1.146 0-2.03-.56-2.523-1.343-.656.753-1.574 1.343-2.82 1.343-2.557 0-3.9-2.163-3.9-4.95 0-5.475 3.803-8.818 7.803-8.818.886 0 1.51.525 1.51 1.376 0 .558-.1.754-.427.754-.295 0-.623-.065-.95-.065-2.492 0-5.4 2.13-5.4 6.85 0 1.705.724 2.688 1.87 2.688.887 0 1.478-.788 1.836-1.705V20c0-.623-.13-.82-.13-1.05 0-.328.396-.558.852-.558 1.085 0 1.77.655 1.77 1.443v5.41c0 .72.325 1.508 1.114 1.508 1.3 0 1.9-2.1 2.195-3.54z"/><path d="M138.12 25.18c0-2.098.6-4.426 1.64-7.245h-2.85c-.032 1.278-.23 4.13-.817 6.032-.428 1.376-2.13.195-1.838-.92.362-1.31.492-4.03.524-5.703-.817-.46-1.407-1.147-1.407-2.098 0-.918.784-1.508 1.64-1.508.787 0 1.705.393 2.063 1.737l1.738.13h1.703c.396 0 1.705 1.082 1.574 1.836 0 .393-1.475 4.26-1.475 7.54 0 .918.426 1.77 1.31 1.77 1.508 0 2.064-2.1 2.36-3.54.13-.688.46-.982.787-.982.522 0 1.146.72 1.146 1.343 0 .1-.032.165-.032.23-.59 2.163-1.867 5.114-4.687 5.114-1.54-.001-3.376-.854-3.376-3.737z"/><path d="M144.18 10.23c0-1.147.885-2 1.967-2 1.146 0 2 .852 2 2 0 1.082-.854 2-2 2-1.083 0-1.967-.918-1.967-2zm2.72 15.014c0 .295 0 1.508.854 1.508 1.31 0 1.9-2.1 2.195-3.54.395-2 2.164-.458 1.902.6-.6 2.163-1.87 5.114-4.69 5.114-1.736 0-2.752-1.41-2.752-3.08v-8.752c0-.623-.133-.82-.133-1.05 0-.328.395-.558.854-.558 1.082 0 1.77.656 1.77 1.442V25.245z"/><path d="M150.08 17.083c0-.623-.13-.82-.13-1.05 0-.328.395-.558.852-.558 1.082 0 1.77.656 1.77 1.442v1.475c.885-1.835 2.064-3.245 3.67-3.245 2.197 0 2.72 1.803 2.72 3.31v6.786c0 .295 0 1.508.852 1.508 1.313 0 1.902-2.1 2.197-3.54.13-.688.46-.982.787-.982.523 0 1.146.72 1.146 1.343 0 .032 0 .1-.03.23-.56 2.163-1.87 5.114-4.69 5.114-1.735 0-2.752-1.41-2.752-3.08V19.18c0-1.016-.065-1.868-.688-1.868-.95 0-2.98 2.82-3.21 5.41v4.786c0 .622.03 1.41-.918 1.41-.656 0-1.574-.23-1.574-1.44l-.002-10.392z"/><path d="M167.95 30.852V27.4c-.654.655-1.54 1.18-2.688 1.18-2.557 0-3.9-2.163-3.9-4.95 0-5.474 3.803-8.817 7.8-8.817.885 0 1.508.525 1.508 1.376 0 .558-.098.754-.426.754-.295 0-.623-.065-.95-.065-2.5 0-5.408 2.13-5.408 6.852 0 1.702.72 2.688 1.87 2.688 1.3 0 1.967-1.737 2.195-3.05v-3.705c0-.623-.13-.82-.13-1.05 0-.328.395-.557.852-.557 1.082 0 1.77.655 1.77 1.442v8.916c1.183-1.3 2.23-2.948 2.888-5.212.194-.688.457-.982.786-.982.523 0 1.146.72 1.146 1.343 0 .033 0 .197-.03.328-1.113 3.803-3.017 5.736-4.787 7.277v5.672c0 3.44-1.736 4.652-3.408 4.652-1.834 0-3.146-1.672-3.146-3.77-.005-3.3 1.897-4.982 4.06-6.882zm0 5.998v-3.508c-1.05 1.08-1.77 2.327-1.77 4.293 0 1.018.328 1.805.853 1.805 1.05-.002.918-1.967.918-2.6zm11.2-9.67c0 .818-.72 1.54-1.607 1.54-.85 0-1.572-.72-1.572-1.54 0-.887.724-1.574 1.572-1.574.887-.002 1.607.687 1.607 1.574zm-.328-4.132c0 .853-.46 1.214-1.016 1.214-.688 0-1.508-.623-1.508-1.508V6.593c0-.623-.295-.885-.295-1.147 0-.23.295-.394.983-.394.885 0 1.834.295 1.834 1.313l.002 16.683z"/></svg>